# xmcd
#
# Track frame offsets:
#	150
#	17864
#	48826
#	62725
#	77925
#	87837
#	103662
#	113488
#	137420
#	152589
#	168114
#	183986
#	206717
#
# Disc length: 3553 seconds
#
# Revision: 0
# Processed by: cddbd v1.5.2PL0 Copyright (c) Steve Scherf et al.
# Submitted via: audiograbber 1.83.01
#
DISCID=9d0ddf0d
DTITLE=Amy Winehouse - Frank (Deluxe Edition) CD1
DYEAR=2008
DGENRE=Soul
TTITLE0=Intro - Stronger Than Me
TTITLE1=You Sent Me Flying - Cherry
TTITLE2=Know You Now
TTITLE3=Fuck Me Pumps
TTITLE4=I Heard Love Is Blind
TTITLE5=Moody's Mood For Love - Teo Licks
TTITLE6=(There Is) No Greater Love
TTITLE7=In My Bed
TTITLE8=Take The Box
TTITLE9=October Song
TTITLE10=What Is It About Men
TTITLE11=Help Yourself
TTITLE12=Amy Amy Amy - Outro
EXTD=
EXTT0=
EXTT1=
EXTT2=
EXTT3=
EXTT4=
EXTT5=
EXTT6=
EXTT7=
EXTT8=
EXTT9=
EXTT10=
EXTT11=
EXTT12=
PLAYORDER=
